<?xml version="1.0" encoding="utf-8"?>
<svg width="125" height="22" viewBox="0 0 125 22" fill="none" xmlns="http://www.w3.org/2000/svg">
<path d="M86.1047 19.1213L86.1002 18.0933C86.1047 18.0024 86.1047 17.9114 86.1002 17.8204C86.1002 17.3246 85.8001 16.8834 85.3476 16.7061C85.4059 16.7606 85.4551 16.8243 85.4955 16.8925C85.5671 17.1063 85.5985 17.3337 85.585 17.5612L85.594 19.7944C85.6074 20.0218 85.5806 20.2493 85.5089 20.4676C85.4193 20.6586 85.2312 20.7769 85.0251 20.7723C84.5279 20.7769 84.6668 20.3266 84.2591 20.3311H84.0799L79.0898 20.3539L79.6184 20.8769L84.604 20.8542H84.7832C85.1864 20.8542 85.0475 21.2999 85.5492 21.2954C85.7553 21.2999 85.9434 21.1817 86.033 20.9907C86.1002 20.7723 86.1315 20.5449 86.1181 20.3175L86.1047 19.1213Z" fill="white"/>
<path d="M86.0285 2.94704L86.024 1.89181C86.0285 1.70078 86.0105 1.50975 85.9747 1.31871C85.8806 0.945744 85.6164 0.641001 85.267 0.5C85.3252 0.554581 85.3745 0.618259 85.4148 0.686485C85.4864 0.90026 85.5133 1.12768 85.4999 1.3551L85.5088 3.62476C85.5223 3.85218 85.4954 4.0796 85.4282 4.29792C85.3386 4.48895 85.1505 4.60721 84.9444 4.60266C84.4472 4.60721 84.5861 4.15692 84.1784 4.16147H83.9993L81.9073 4.17057L81.9297 8.67349L82.4538 8.66894L82.4359 4.68454L84.5323 4.67544H84.7115C85.1147 4.67544 84.9758 5.12118 85.4775 5.11663C85.6836 5.12118 85.8762 5.00292 85.9658 4.81189C86.0329 4.59357 86.0598 4.36615 86.0464 4.13873L86.0285 2.94704Z" fill="white"/>
<path d="M84.5771 12.4168C84.0799 12.4214 84.2188 11.9711 83.8112 11.9756H83.632L81.9477 11.9847L81.9701 17.0608L82.4942 17.0562L82.4718 12.5215L84.1561 12.5124H84.3353C84.7384 12.5124 84.5995 12.9581 85.1012 12.9535C85.3118 12.9581 85.4999 12.8353 85.5895 12.6443C85.6567 12.4259 85.6881 12.1985 85.6746 11.9711L85.6657 9.77876C85.7642 9.17837 85.4506 8.58708 84.9041 8.33691C84.9624 8.38695 85.0072 8.44608 85.0475 8.5143C85.1147 8.73263 85.146 8.9555 85.1326 9.18292L85.1416 11.4162C85.155 11.6436 85.1281 11.871 85.0609 12.0894C84.9758 12.2804 84.7832 12.4032 84.5771 12.3986" fill="white"/>
<path d="M84.5593 19.8626C84.6533 19.8945 84.725 19.9673 84.7608 20.0582C84.7967 20.1356 84.8101 20.2538 84.94 20.2538H84.9803V20.2311V20.1992C84.9803 20.1901 84.9803 20.1765 84.9803 20.1674V20.1446L84.9669 17.3155V17.2882C84.9669 17.2792 84.9669 17.2701 84.9669 17.261V17.2291H84.9266C84.7967 17.2291 84.7877 17.3519 84.7519 17.4247C84.716 17.5157 84.6444 17.5884 84.5503 17.6203C84.4069 17.6612 84.2591 17.6794 84.1113 17.6749L81.446 17.6885L81.4415 17.0517L81.4147 11.439L83.6947 11.4299C83.8425 11.4253 83.9904 11.4435 84.1337 11.4799C84.2278 11.5118 84.3039 11.5845 84.3398 11.6755C84.3711 11.7528 84.3845 11.8711 84.5145 11.8711H84.5548V11.8484C84.5548 11.8393 84.5548 11.8256 84.5548 11.8165C84.5548 11.8165 84.5548 11.8165 84.5548 11.7847C84.5548 11.7756 84.5548 11.7665 84.5548 11.7574L84.5413 8.93282C84.5413 8.93282 84.5413 8.93282 84.5413 8.90553C84.5413 8.89643 84.5413 8.88279 84.5413 8.87369H84.501C84.3756 8.87369 84.3621 8.9965 84.3308 9.06927C84.2905 9.16024 84.2188 9.23302 84.1247 9.26486C83.9814 9.30579 83.8336 9.32398 83.6858 9.31944L81.4057 9.32853L81.3788 3.60209L84.071 3.58844C84.2188 3.58389 84.3666 3.60209 84.51 3.63847C84.604 3.67031 84.6802 3.74309 84.716 3.83406C84.7474 3.91138 84.7608 4.02964 84.8863 4.02964H84.9266V3.99325C84.9266 3.98415 84.9266 3.97506 84.9266 3.96596L84.9131 1.09137V1.05953C84.9131 1.05043 84.9131 1.03679 84.9131 1.02769V0.99585H84.8728C84.7474 0.99585 84.7384 1.11866 84.7071 1.19143C84.6668 1.2824 84.5951 1.35517 84.501 1.38701C84.3577 1.42795 84.2099 1.44614 84.062 1.44159L78.9375 1.46888L79.0271 19.8081L84.1427 19.7808C84.2905 19.7762 84.4383 19.7944 84.5817 19.8308" fill="white"/>
<path d="M70.0636 19.2395L70.0591 18.3434C70.0636 18.1479 70.0501 17.9523 70.0098 17.7612C69.9068 17.4019 69.6515 17.1108 69.311 16.9744C69.3648 17.0289 69.4141 17.0881 69.4544 17.1518C69.5216 17.3701 69.5529 17.5929 69.5395 17.8204L69.5484 19.9217C69.5619 20.1492 69.535 20.3766 69.4678 20.5949C69.3827 20.7859 69.1901 20.9042 68.984 20.8996C68.4868 20.9042 68.6257 20.4539 68.218 20.4584H68.0389L62.2783 20.4857H62.0991C61.6959 20.4857 61.8393 20.936 61.3376 20.936C61.1808 20.9406 61.0285 20.8724 60.9299 20.745C61.0643 21.0588 61.3241 21.2954 61.6422 21.4091C61.7094 21.4273 61.781 21.4364 61.8482 21.4409C62.3454 21.4364 62.1976 20.9906 62.6097 20.9906H62.7889L68.5585 20.9679H68.7377C69.1408 20.9679 69.002 21.4136 69.5037 21.4091C69.7097 21.4136 69.9023 21.2908 69.9874 21.0998C70.0546 20.8814 70.0815 20.654 70.0681 20.4266L70.0636 19.2395Z" fill="white"/>
<path d="M69.0064 18.8345L69.002 17.5701V17.4837C69.002 17.47 69.002 17.4609 69.002 17.4473H68.9616C68.8362 17.4473 68.8273 17.5701 68.7914 17.6428C68.7556 17.7338 68.6794 17.8066 68.5854 17.8384C68.442 17.8794 68.2942 17.8976 68.1464 17.893L62.2066 17.9203C62.0588 17.9248 61.9109 17.9067 61.7676 17.8703C61.6735 17.8384 61.5974 17.7657 61.5615 17.6747C61.5302 17.5974 61.5123 17.4791 61.3913 17.4791H61.351V17.5155C61.351 17.5246 61.351 17.5337 61.351 17.5428V17.6019L61.3645 20.2082V20.2354C61.3645 20.2445 61.3645 20.2582 61.3645 20.2673V20.3037H61.4182C61.5391 20.3037 61.5526 20.1809 61.5839 20.1081C61.6243 20.0171 61.6959 19.9443 61.79 19.9125C61.9333 19.8761 62.0812 19.8579 62.229 19.8625L68.115 19.8352C68.2628 19.8306 68.4107 19.8443 68.554 19.8807C68.6481 19.9125 68.7242 19.9853 68.7601 20.0762C68.7914 20.1536 68.8049 20.2718 68.9348 20.2718H68.984C68.984 20.2582 68.984 20.2491 68.984 20.2354V20.1627L68.9796 18.8209L69.0064 18.8345Z" fill="white"/>
<path d="M64.6928 4.0159C64.3389 4.0159 64.1911 4.09777 64.1955 4.5799L64.2 5.57145C64.2 5.61694 64.2 5.64423 64.2 5.66697C64.3613 5.79432 64.527 5.91258 64.7017 6.0172L64.6972 5.10297C64.6928 4.62083 64.8451 4.53896 65.1989 4.53896H65.5842C65.5842 4.13415 65.4498 4.0068 65.0511 4.01135L64.6928 4.0159Z" fill="white"/>
<path d="M64.2403 11.3344C64.2403 11.3663 64.2403 11.4208 64.2403 11.4845V11.5345C64.2403 11.9394 64.3612 12.0667 64.7644 12.0667V12.0167C64.7644 11.953 64.7644 11.8984 64.7644 11.8666C64.7644 11.4572 65.2034 11.5982 65.1989 11.0888C65.2034 10.9796 65.1855 10.875 65.1541 10.7704C65.0152 10.4793 64.7689 10.2519 64.4687 10.1382C64.6031 10.2337 64.6838 10.3929 64.6793 10.5612C64.6838 11.0661 64.2403 10.9205 64.2448 11.339" fill="white"/>
<path d="M69.1005 5.38032C69.1005 5.78968 69.544 5.64413 69.544 6.15355C69.5485 6.36278 69.432 6.55836 69.2484 6.64478C69.0333 6.713 68.8138 6.74484 68.5899 6.7312L66.0366 6.74484L67.0041 7.2952L69.1095 7.2861C69.3335 7.29975 69.5574 7.26791 69.768 7.19968C69.9561 7.10872 70.0681 6.91768 70.0636 6.70846C70.0591 6.20358 69.6202 6.34913 69.6202 5.93523C69.6202 5.89429 69.6157 4.93003 69.6157 4.93003C69.6739 3.93393 69.3559 2.95602 68.7198 2.19189C68.6168 2.08273 68.5048 1.98266 68.3838 1.89624C68.8766 2.63308 69.1229 3.51093 69.0826 4.40241C69.0826 4.40241 69.0871 5.36668 69.0871 5.40761" fill="white"/>
<path d="M69.647 10.9113C69.6828 10.3746 69.5977 9.84241 69.4006 9.34209C69.2439 9.04189 69.0244 8.77808 68.7556 8.57341L68.7018 8.53247C68.769 8.62344 68.8228 8.71441 68.8765 8.81447C69.0736 9.31025 69.1587 9.84696 69.1229 10.3837L69.1274 11.7255C69.1946 12.7034 68.881 13.6676 68.2584 14.4136C67.5685 15.0822 66.6323 15.4324 65.6782 15.3687L64.1865 15.3778C63.4026 15.4188 62.6277 15.1959 61.9826 14.7456C62.6456 15.5643 63.6624 16.0101 64.7061 15.9373L66.1933 15.9282C67.1475 15.9873 68.0837 15.6416 68.7735 14.973C69.4006 14.218 69.7097 13.2492 69.6425 12.2622L69.647 10.9113Z" fill="white"/>
<path d="M61.2077 11.057C61.2346 11.1434 61.248 11.2343 61.2525 11.3253C61.2525 11.3663 61.2525 11.4117 61.2525 11.4481V11.4936C61.2525 11.5209 61.2525 11.5482 61.2525 11.5755V11.6437C61.3062 13.8042 62.2783 14.8822 64.1731 14.8685L65.6648 14.8594C67.6178 14.8503 68.5943 13.8087 68.5854 11.7392L68.5809 10.3974C68.6123 9.9426 68.5495 9.48776 68.3972 9.05566C68.2763 8.82369 68.1061 8.62356 67.8955 8.46892C67.5506 8.2233 67.1878 7.99588 66.816 7.79575L64.5091 6.54949C64.2806 6.41758 64.0566 6.27204 63.8506 6.10374C63.7117 5.98549 63.649 5.93091 63.6445 5.58523L63.64 4.58458C63.6356 3.85228 63.976 3.47931 64.6703 3.47476H65.0779C65.5976 3.40654 66.0769 3.77496 66.1485 4.30257C66.162 4.39354 66.1575 4.48451 66.1485 4.57093L66.153 5.27593C66.1575 5.42603 66.1396 5.57613 66.1038 5.72168C66.0724 5.81719 66.0007 5.89452 65.9111 5.9309C65.835 5.96274 65.7185 5.97639 65.7185 6.10374C65.714 6.11739 65.714 6.13103 65.7185 6.14468H65.7409H65.7723L68.89 6.13103H68.9213C68.9213 6.11739 68.9213 6.10374 68.9213 6.0901C68.9213 5.96274 68.8004 5.9491 68.7287 5.92181C68.6391 5.88542 68.5675 5.8081 68.5361 5.71258C68.5003 5.57613 68.4824 5.43968 68.4824 5.29868L68.4779 4.40264C68.4689 2.29673 67.4924 1.25059 65.5528 1.25514L64.0387 1.26424C62.0991 1.27334 61.1315 2.33311 61.145 4.43903L61.1539 5.97639C61.145 6.3721 61.1987 6.76326 61.3152 7.14078C61.4093 7.42733 61.5795 7.68204 61.8124 7.87307C62.1573 8.13688 62.5291 8.3643 62.9144 8.55988L65.2213 9.86073C65.4542 9.99263 65.6737 10.1382 65.8798 10.3065C66.041 10.4975 66.1172 10.7477 66.0858 10.9978L66.0903 11.5527C66.0948 12.2714 65.7723 12.6307 65.1317 12.6353H64.6927C64.1731 12.7171 63.6848 12.3578 63.6042 11.8347C63.5908 11.7438 63.5908 11.6528 63.5997 11.5664V11.5027C63.5952 11.3526 63.6132 11.2025 63.649 11.057C63.6803 10.9614 63.752 10.8887 63.8416 10.8477C63.9178 10.8159 64.0342 10.8022 64.0342 10.6703C64.0387 10.6567 64.0342 10.6431 64.0342 10.6294H64.0029L60.8852 10.6431H60.8538C60.8493 10.6567 60.8538 10.6703 60.8538 10.684C60.8538 10.8113 60.9747 10.8204 61.0464 10.8568C61.136 10.8978 61.2077 10.9705 61.239 11.0661" fill="white"/>
<path d="M31.3071 14.8321C31.3653 14.8321 31.4236 14.823 31.4773 14.8048L31.4728 13.877C31.1458 13.9224 31.2489 14.3272 30.7785 14.3272H30.7516C30.7606 14.4046 30.7785 14.4819 30.8144 14.5501C30.9039 14.7411 31.0921 14.8594 31.2981 14.8503" fill="white"/>
<path d="M34.931 5.86703C34.9265 5.92616 34.9265 5.98984 34.931 6.04897C34.931 6.45832 35.3745 6.31278 35.3745 6.8222C35.379 7.03142 35.2625 7.22701 35.0788 7.31343C34.8683 7.3862 34.6443 7.41349 34.4203 7.39985L31.9701 7.41349C31.7461 7.42714 31.5221 7.39985 31.3071 7.33162C31.2399 7.29523 31.1772 7.2452 31.1279 7.18607C31.2668 7.53175 31.558 7.79101 31.9118 7.89107C32.1045 7.93201 32.3016 7.9502 32.4987 7.94111L34.94 7.92746C35.1639 7.94111 35.3879 7.90927 35.5985 7.84104C35.7866 7.75007 35.9031 7.55904 35.8941 7.34981C35.8896 6.84494 35.4506 6.99504 35.4506 6.57658C35.4506 6.53565 35.4506 6.47652 35.4506 6.39465L35.4462 5.37125C35.4417 4.16138 35.1281 3.22895 34.5144 2.59218C34.4204 2.49666 34.3218 2.41024 34.2143 2.32837C34.716 3.06521 34.9668 3.9476 34.9265 4.84364L34.931 5.86703Z" fill="white"/>
<path d="M35.5313 19.7897C35.5268 19.7306 35.5268 19.6669 35.5313 19.6078L35.491 11.6162L34.9669 11.0886L35.0072 19.0802C35.0072 19.1666 35.0072 19.2212 35.0072 19.2621C35.0072 19.6715 35.4506 19.5259 35.4506 20.0353C35.4551 20.2446 35.3387 20.4401 35.1505 20.5266C34.9355 20.5948 34.716 20.6266 34.492 20.613L29.7169 20.6357C28.9509 20.6721 28.1984 20.4492 27.5712 20.008C27.625 20.0854 27.6832 20.1491 27.7414 20.2173C28.4044 20.8813 29.3137 21.2225 30.241 21.1588L35.0072 21.1361C35.2311 21.1497 35.4551 21.1179 35.6657 21.0496C35.8538 20.9587 35.9658 20.7676 35.9613 20.5584C35.9568 20.0535 35.5178 20.1991 35.5178 19.7852" fill="white"/>
<path d="M30.3306 10.3382L30.3082 5.75343C30.3082 4.95746 30.5994 4.95746 30.8323 4.95746L31.4101 4.95291C31.3519 4.42075 31.1055 4.42075 30.9174 4.4253L30.3037 4.42985C30.0663 4.42985 29.7707 4.43439 29.7751 5.22582L29.8289 16.5332C29.8513 17.3246 30.1469 17.3246 30.3664 17.32C30.3619 17.2336 30.3619 17.1426 30.3664 17.0562L30.353 14.1043C30.3306 14.077 30.3082 14.0452 30.2858 14.0088C30.2186 13.7905 30.1872 13.5676 30.2007 13.3402L30.1917 11.1069C30.1783 10.8795 30.2052 10.6521 30.2724 10.4337C30.2858 10.3974 30.3082 10.3655 30.3306 10.3382Z" fill="white"/>
<path d="M29.7124 20.0946L34.8101 20.0673H34.8414C34.8459 20.0536 34.8459 20.04 34.8414 20.0264C34.8414 19.899 34.7205 19.8899 34.6488 19.8581C34.5547 19.8171 34.4831 19.7398 34.4562 19.6443C34.4159 19.4987 34.3979 19.3486 34.4024 19.1985L34.3576 11.1524L31.6565 11.1661C31.5042 11.1524 31.3564 11.1115 31.2175 11.0523C31.1234 11.0205 31.0473 10.9477 31.0115 10.8568C30.9801 10.7794 30.9622 10.6612 30.8368 10.6612H30.8009V10.6976C30.8009 10.6976 30.8009 10.6976 30.8009 10.7249V10.7567L30.8144 13.4903C30.8144 13.4994 30.8144 13.513 30.8144 13.5221C30.8144 13.5358 30.8144 13.5449 30.8144 13.5585H30.8502C30.9756 13.5585 30.9846 13.4357 31.0204 13.3629C31.0921 13.3493 31.1638 13.3584 31.2265 13.3857C31.3698 13.3447 31.5176 13.3311 31.6655 13.3356H32.0193L32.0238 13.8769L32.0417 17.8659L30.3664 17.875C29.6542 17.8795 29.3003 17.4338 29.2958 16.5377L29.2421 5.26222C29.2376 4.36618 29.5915 3.92044 30.2992 3.91589L30.9084 3.90225C31.5983 3.8977 31.9432 4.34344 31.9477 5.23948L31.9521 5.96722C31.9566 6.11732 31.9387 6.26742 31.9029 6.41297C31.8715 6.50848 31.7998 6.58581 31.7103 6.62219C31.6341 6.65403 31.5176 6.66768 31.5176 6.79503C31.5132 6.80868 31.5132 6.82232 31.5176 6.83597H31.549L34.6667 6.82232H34.6981C34.7025 6.80868 34.7025 6.79503 34.6981 6.78139C34.6981 6.65403 34.5816 6.64494 34.5055 6.6131C34.4159 6.57216 34.3442 6.49939 34.3128 6.40387C34.2725 6.25832 34.2546 6.10822 34.2591 5.95813L34.2546 4.84831C34.2456 2.71056 33.2109 1.64623 31.1548 1.65533L29.6273 1.66443C27.7549 1.68262 26.8231 2.7333 26.8321 4.82102L26.8903 17.0062C26.8993 19.0939 27.84 20.131 29.7124 20.1219" fill="white"/>
<path d="M54.4213 3.05173C54.4213 2.96531 54.4213 2.91073 54.4213 2.86979C54.4213 2.46044 54.8602 2.60144 54.8558 2.09202C54.8602 1.88279 54.7393 1.68721 54.5512 1.60079C54.4795 1.56895 54.4033 1.54621 54.3272 1.53711C54.3272 1.53711 54.3272 1.53711 54.3272 1.5644C54.3317 2.06927 53.8882 1.92827 53.8927 2.34218C53.8927 2.38311 53.8927 2.44224 53.8927 2.52411L53.9643 17.1973L54.4884 17.1927L54.4213 3.05173Z" fill="white"/>
<path d="M57.091 16.8651C57.1492 16.9197 57.1985 16.9789 57.2388 17.0471C57.3105 17.2609 57.3374 17.4883 57.3239 17.7157L57.3329 19.949C57.3463 20.1764 57.3195 20.4038 57.2523 20.6221C57.1672 20.8132 56.9746 20.9314 56.7685 20.9269C56.2713 20.9314 56.4101 20.4811 56.0025 20.4857H55.8233L51.0751 20.513L51.6037 21.0406L56.3653 21.0178H56.5445C56.9477 21.0178 56.8088 21.4636 57.3105 21.459C57.5166 21.4636 57.7047 21.3453 57.7943 21.1543C57.8615 20.936 57.8884 20.7085 57.8749 20.4811L57.866 18.3024C57.9645 17.7021 57.6554 17.1153 57.1089 16.8606" fill="white"/>
<path d="M56.3116 20.0173C56.4056 20.0536 56.4773 20.1219 56.5176 20.2128C56.549 20.2902 56.5624 20.4084 56.6878 20.4084H56.7282V20.3766C56.7282 20.3675 56.7282 20.3538 56.7282 20.3447L56.7147 17.4701V17.4429C56.7147 17.4338 56.7147 17.4201 56.7147 17.411C56.7147 17.411 56.7147 17.3883 56.7147 17.3746H56.6744C56.549 17.3746 56.54 17.4974 56.5087 17.5748C56.4683 17.6657 56.3967 17.7385 56.3026 17.7703C56.1593 17.8113 56.0114 17.8295 55.8636 17.8249L53.4447 17.8386L53.3685 2.44221C53.3641 2.29211 53.3775 2.14201 53.4133 1.99646C53.4581 1.91004 53.5343 1.84182 53.6284 1.81453C53.709 1.78269 53.8255 1.76904 53.8255 1.63714C53.8299 1.62349 53.8299 1.60985 53.8255 1.5962H53.7896L50.5868 1.6144L50.542 1.55981C50.5375 1.57346 50.5375 1.5871 50.542 1.60075C50.542 1.73265 50.6585 1.74175 50.7346 1.77359C50.8242 1.80998 50.8959 1.8873 50.9272 1.98282C50.9675 2.12837 50.9855 2.27846 50.981 2.42856L51.0661 19.9809L55.9084 19.9581C56.0562 19.9536 56.2041 19.9672 56.3474 20.0036" fill="white"/>
<path d="M17.5327 19.8762C17.5327 19.8353 17.5327 19.7762 17.5327 19.6943L17.5013 13.2765L16.9772 11.5981L17.0131 19.1712C17.0131 19.2577 17.0131 19.3122 17.0131 19.3532C17.0131 19.7625 17.4565 19.617 17.4565 20.1264C17.461 20.3356 17.3401 20.5312 17.1564 20.6176C16.9459 20.6904 16.7219 20.7177 16.4979 20.7041L14.0477 20.7177C13.8237 20.7313 13.5997 20.7041 13.3847 20.6358C13.3175 20.5949 13.2593 20.5449 13.2145 20.4857C13.3578 20.8405 13.6624 21.1043 14.0297 21.1953L14.1955 21.2271H14.2896C14.4419 21.2271 14.5807 21.2271 14.5807 21.2271L17.022 21.2135C17.246 21.2271 17.4655 21.1953 17.676 21.1271C17.8642 21.0361 17.9851 20.8405 17.9762 20.6313C17.9717 20.1264 17.5327 20.2765 17.5327 19.8626" fill="white"/>
<path d="M22.4915 6.17632L22.4781 3.20166C22.4781 3.11524 22.4781 3.06066 22.4781 3.01972C22.4781 2.61037 22.917 2.75137 22.9126 2.24194C22.917 2.03272 22.8006 1.84168 22.6124 1.75072C22.5318 1.71888 22.4512 1.70068 22.3661 1.70068C22.3706 2.20556 21.9271 2.06456 21.9316 2.47846C21.9316 2.5194 21.9316 2.58307 21.9316 2.6604L21.945 5.63051L22.0122 19.1393C22.0122 19.2257 22.0122 19.2803 22.0122 19.3212C22.0122 19.7306 22.4557 19.585 22.4557 20.0944C22.4601 20.3037 22.3437 20.4993 22.16 20.5857C21.9495 20.6584 21.7255 20.6857 21.5015 20.6721L19.0737 20.6857C18.8497 20.6994 18.6257 20.6721 18.4107 20.6039C18.3435 20.5675 18.2808 20.5174 18.2315 20.4629C18.3748 20.8176 18.6795 21.0815 19.0468 21.1724L19.208 21.2043H19.3021C19.4544 21.2043 19.5933 21.2043 19.5933 21.2043L22.0256 21.1906C22.2496 21.2043 22.4736 21.1724 22.6841 21.1042C22.8723 21.0132 22.9887 20.8176 22.9798 20.6084C22.9753 20.1035 22.5363 20.2536 22.5363 19.8397C22.5363 19.7988 22.5363 19.7397 22.5363 19.6578L22.4691 6.17177L22.4915 6.17632Z" fill="white"/>
<path d="M18.4779 6.88592V6.49931C18.4779 6.49931 18.4734 5.84434 18.4689 5.03472L17.797 2.76961C17.7701 2.70139 17.7701 2.62406 17.797 2.55584C17.8418 2.46942 17.8687 2.3739 17.8642 2.27384C17.8687 2.06461 17.7477 1.86903 17.5596 1.78261C17.4924 1.75532 17.4207 1.73712 17.3491 1.72803C17.3491 1.73712 17.3491 1.74622 17.3491 1.75532C17.3625 1.89177 17.3132 2.02367 17.2147 2.11919C17.0893 2.2238 17.1385 2.3648 17.1699 2.47851C17.2012 2.59222 18.4869 6.89502 18.4869 6.89502" fill="white"/>
<path d="M13.7072 2.01451C13.7968 2.0509 13.8685 2.12822 13.8999 2.22374C13.9402 2.36929 13.9581 2.51939 13.9536 2.66948L14.0342 19.2575C14.0387 19.4076 14.0208 19.5577 13.985 19.7033C13.9536 19.7988 13.8819 19.8761 13.7923 19.9125C13.7162 19.9443 13.5997 19.958 13.5997 20.0899C13.5952 20.1035 13.5952 20.1172 13.5997 20.1308H13.6356L16.7533 20.1172H16.7891C16.7936 20.1035 16.7936 20.0899 16.7891 20.0762C16.7891 19.9489 16.6682 19.9352 16.5965 19.9034C16.5069 19.8625 16.4352 19.7897 16.4039 19.6942C16.3636 19.5486 16.3457 19.3985 16.3501 19.2484L16.2964 8.08209L19.0647 16.483L19.0781 19.2348C19.0826 19.3849 19.0647 19.535 19.0244 19.6805C18.993 19.776 18.9214 19.8534 18.8318 19.8898C18.7556 19.9216 18.6392 19.9352 18.6392 20.0671C18.6392 20.0808 18.6392 20.0944 18.6392 20.1081H18.675L21.7927 20.0944H21.8241H21.8465C21.8465 20.0808 21.8465 20.0671 21.8465 20.0535C21.8465 19.9261 21.7255 19.9125 21.6538 19.8807C21.5643 19.8397 21.4926 19.7669 21.4612 19.6714C21.4209 19.5259 21.403 19.3758 21.4075 19.2257L21.3134 2.60581C21.3089 2.45571 21.3268 2.30561 21.3627 2.16006C21.394 2.06455 21.4657 1.98722 21.5553 1.95084C21.6314 1.919 21.7479 1.90535 21.7479 1.778C21.7524 1.76435 21.7524 1.75071 21.7479 1.73706H21.7166L18.6436 1.75071H18.6078C18.6033 1.76435 18.6033 1.778 18.6078 1.79164C18.6078 1.919 18.7243 1.92809 18.8004 1.95993C18.89 2.00087 18.9617 2.07364 18.993 2.16916C19.0289 2.31471 19.0468 2.46481 19.0423 2.6149L19.0826 10.6065L16.5472 2.26013C16.5114 2.17371 16.5338 2.06909 16.6055 2.00996C16.6816 1.97813 16.7891 1.95993 16.7891 1.83713C16.7936 1.82348 16.7936 1.80984 16.7891 1.79619H16.7578L13.6042 1.80984L13.5549 1.74616C13.5505 1.7598 13.5505 1.77345 13.5549 1.78709C13.5549 1.919 13.6759 1.92809 13.7476 1.95993" fill="white"/>
<path d="M98.6203 5.79885L98.6069 2.82419C98.6069 2.73777 98.6069 2.68319 98.6069 2.64225C98.6069 2.2329 99.0459 2.3739 99.0414 1.86448C99.0459 1.65525 98.9294 1.46422 98.7413 1.37325C98.6696 1.34141 98.5934 1.31867 98.5173 1.30957C98.5173 1.30957 98.5173 1.30957 98.5173 1.33686C98.5218 1.84173 98.0783 1.70073 98.0828 2.11464C98.0828 2.15557 98.0828 2.21925 98.0828 2.29657L98.0962 5.26669L98.1634 18.7618C98.1634 18.8482 98.1634 18.9028 98.1634 18.9437C98.1634 19.3531 98.6069 19.2076 98.6069 19.717C98.6114 19.9262 98.4949 20.1218 98.3112 20.2082C98.1007 20.281 97.8767 20.3083 97.6527 20.2946L95.2025 20.3083C94.9785 20.3219 94.759 20.2946 94.544 20.2264C94.4768 20.19 94.4141 20.14 94.3648 20.0854C94.5082 20.4402 94.8083 20.704 95.1756 20.795L95.3413 20.8268H95.4309C95.5832 20.8268 95.7221 20.8268 95.7221 20.8268L98.1634 20.8131C98.3874 20.8268 98.6114 20.795 98.8219 20.7222C99.01 20.6312 99.1265 20.4402 99.1175 20.2309C99.1131 19.7261 98.6741 19.8762 98.6741 19.4623C98.6741 19.4213 98.6741 19.3622 98.6741 19.2803L98.6069 5.7943L98.6203 5.79885Z" fill="white"/>
<path d="M93.6615 19.4942C93.6615 19.4532 93.6615 19.3941 93.6615 19.3122L93.6302 12.8944L93.0971 11.2161L93.1329 18.7892C93.1329 18.8756 93.1329 18.9302 93.1329 18.9711C93.1329 19.3805 93.5764 19.2349 93.5764 19.7443C93.5809 19.9536 93.4599 20.1491 93.2763 20.2356C93.0657 20.3083 92.8418 20.3356 92.6178 20.322L90.181 20.3356C89.957 20.3493 89.733 20.322 89.518 20.2538C89.4508 20.2174 89.3881 20.1673 89.3388 20.1082C89.4821 20.463 89.7868 20.7268 90.1541 20.8178L90.3198 20.8496H90.4139C90.5662 20.8496 90.7051 20.8496 90.7051 20.8496L93.1464 20.836C93.3703 20.845 93.5943 20.8178 93.8049 20.745C93.993 20.654 94.1095 20.463 94.105 20.2538C94.1005 19.7489 93.6615 19.899 93.6615 19.4851" fill="white"/>
<path d="M94.6022 6.50854V6.12193C94.6022 6.12193 94.5977 5.46696 94.5933 4.65734L93.9169 2.39224C93.8855 2.32401 93.8855 2.24669 93.9169 2.17846C93.9617 2.09204 93.9841 1.99652 93.9841 1.89646C93.9885 1.68723 93.8676 1.49165 93.6795 1.40523C93.6123 1.37339 93.5361 1.35065 93.46 1.34155C93.46 1.34155 93.46 1.34155 93.46 1.36884C93.4734 1.5053 93.4241 1.64175 93.3211 1.73272C93.1957 1.83733 93.2405 1.97833 93.2808 2.09204L94.6022 6.50854Z" fill="white"/>
<path d="M89.8361 1.63698C89.9256 1.67337 89.9973 1.75069 90.0287 1.84621C90.069 1.99176 90.0869 2.14186 90.0824 2.29195L90.1631 18.88C90.1675 19.0301 90.1496 19.1802 90.1138 19.3257C90.0824 19.4213 90.0108 19.4986 89.9212 19.535C89.8405 19.5668 89.7285 19.5805 89.7285 19.7124C89.7285 19.726 89.7285 19.7396 89.7285 19.7533H89.7599L92.8776 19.7396H92.909C92.9135 19.726 92.9135 19.7124 92.909 19.6987C92.909 19.5714 92.788 19.5577 92.7164 19.5259C92.6268 19.4849 92.5551 19.4122 92.5237 19.3166C92.4834 19.1711 92.4655 19.021 92.47 18.8709L92.4162 7.70456L95.1935 16.1055L95.2069 18.8573C95.2114 19.0074 95.1935 19.1574 95.1577 19.303C95.1263 19.3985 95.0546 19.4758 94.9651 19.5122C94.8889 19.5441 94.7724 19.5577 94.7724 19.6896C94.768 19.7033 94.768 19.7169 94.7724 19.7305H94.8038L97.9215 19.7169H97.9529C97.9573 19.7033 97.9573 19.6896 97.9529 19.676C97.9529 19.5486 97.8364 19.535 97.7603 19.5031C97.6662 19.4667 97.5945 19.3894 97.5632 19.2939C97.5273 19.1484 97.5049 18.9983 97.5094 18.8482L97.4153 2.22827C97.4109 2.07818 97.4288 1.92808 97.4646 1.78253C97.496 1.68701 97.5676 1.60969 97.6572 1.5733C97.7379 1.54147 97.8543 1.52782 97.8543 1.40046C97.8543 1.38682 97.8543 1.37317 97.8543 1.35953H97.823L94.7052 1.37317H94.6739C94.6694 1.38682 94.6694 1.40501 94.6739 1.41866C94.6739 1.54601 94.7948 1.55511 94.8665 1.58695C94.9561 1.62788 95.0278 1.70066 95.0591 1.79618C95.0994 1.94173 95.1174 2.09182 95.1129 2.24192L95.1532 10.2289L92.6671 1.8826C92.6402 1.77343 92.6671 1.68247 92.7253 1.63243C92.8015 1.60059 92.909 1.5824 92.909 1.45959C92.9135 1.44595 92.9135 1.4323 92.909 1.41866V1.35498H92.8776L89.7196 1.36863H89.6882C89.6882 1.38227 89.6882 1.39592 89.6882 1.40956C89.6882 1.54147 89.8092 1.55056 89.8853 1.5824" fill="white"/>
<path d="M46.8554 3.1426L46.8509 2.08737C46.8599 1.88724 46.8375 1.69166 46.7971 1.49608C46.6986 1.1322 46.4388 0.836557 46.0939 0.695557C46.1521 0.750138 46.2014 0.813815 46.2417 0.882041C46.3134 1.09582 46.3447 1.32324 46.3313 1.55066L46.3402 3.82031C46.3537 4.04773 46.3268 4.27515 46.2551 4.49348C46.17 4.68451 45.9774 4.80277 45.7713 4.79822C45.2741 4.80277 45.413 4.35248 45.0054 4.35703H44.8307L42.7343 4.37067L42.7566 8.8736L43.2808 8.86905L43.2628 4.88464L45.3548 4.87554H45.5339C45.9371 4.87554 45.7982 5.32129 46.2999 5.31674C46.506 5.32129 46.6941 5.20303 46.7837 5.012C46.8509 4.79367 46.8823 4.56625 46.8688 4.33883L46.8554 3.1426Z" fill="white"/>
<path d="M45.4041 12.6125C44.9068 12.617 45.0457 12.1667 44.6381 12.1713H44.4589L42.7746 12.1804L42.797 17.2564L43.3211 17.2518L43.2987 12.7171L44.983 12.708H45.1622C45.5653 12.708 45.4265 13.1537 45.9282 13.1492C46.1342 13.1537 46.3268 13.0309 46.4119 12.8399C46.4836 12.6216 46.5105 12.3941 46.4971 12.1667L46.4881 9.97438C46.5911 9.37399 46.282 8.77815 45.7355 8.52344C45.7938 8.57347 45.843 8.63715 45.8834 8.70537C45.955 8.91915 45.9819 9.14657 45.9685 9.37399L45.9774 11.6073C45.9909 11.8347 45.964 12.0621 45.8968 12.2804C45.8117 12.4715 45.6191 12.5943 45.413 12.5897" fill="white"/>
<path d="M46.9315 19.344L46.9271 18.2887C46.936 18.1568 46.936 18.0249 46.9271 17.893V17.7975C46.9271 17.7975 46.9271 17.7566 46.9271 17.7429C46.8375 17.3654 46.5687 17.0516 46.2148 16.906C46.2731 16.9606 46.3223 17.0243 46.3626 17.0925C46.4298 17.3108 46.4612 17.5337 46.4478 17.7611L46.4567 19.9944C46.4702 20.2218 46.4433 20.4492 46.3761 20.6675C46.291 20.8586 46.0984 20.9768 45.8923 20.9723C45.3951 20.9768 45.5339 20.5265 45.1263 20.5311H44.9471L39.8853 20.5584L40.4139 21.0814L45.4354 21.0587H45.6146C46.0177 21.0587 45.8789 21.5044 46.3806 21.4999C46.5866 21.5044 46.7792 21.3862 46.8643 21.1952C46.936 20.9768 46.9629 20.7494 46.9495 20.522L46.9315 19.344Z" fill="white"/>
<path d="M45.3906 20.0581C45.4847 20.0899 45.5608 20.1627 45.5967 20.2537C45.628 20.331 45.6415 20.4492 45.7714 20.4492H45.8117V20.4265V20.3947C45.8117 20.3856 45.8117 20.3719 45.8117 20.3628V20.3401L45.7983 17.511V17.4837C45.7983 17.4746 45.7983 17.4655 45.7983 17.4564C45.7983 17.4473 45.7983 17.4336 45.7983 17.4245H45.7579C45.6325 17.4245 45.6191 17.5474 45.5877 17.6201C45.5474 17.7111 45.4757 17.7839 45.3817 17.8157C45.2383 17.8566 45.0905 17.8748 44.9427 17.8703L42.2595 17.8839L42.255 17.2472L42.2281 11.6435L44.5126 11.6344C44.6605 11.6299 44.8083 11.6481 44.9516 11.6845C45.0457 11.7163 45.1219 11.7891 45.1577 11.88C45.189 11.9574 45.207 12.0756 45.3324 12.0756H45.3727V12.0529V12.021C45.3727 12.021 45.3727 12.021 45.3727 11.9892L45.3593 9.13735C45.3593 9.13735 45.3593 9.13735 45.3593 9.11006C45.3593 9.09641 45.3593 9.08732 45.3593 9.07367H45.3189C45.1935 9.07367 45.1801 9.19648 45.1487 9.26925C45.1084 9.36022 45.0367 9.43299 44.9427 9.46483C44.7993 9.50577 44.6515 9.52396 44.5037 9.51941L42.2191 9.52851L42.1878 3.81571L44.88 3.80207C45.0278 3.79752 45.1756 3.81571 45.3189 3.8521C45.413 3.88394 45.4892 3.95671 45.525 4.04768C45.5564 4.125 45.5743 4.24326 45.6997 4.24326H45.74V4.20687C45.74 4.19778 45.74 4.18413 45.74 4.17503L45.7266 1.30954V1.27315C45.7266 1.26405 45.7266 1.25041 45.7266 1.24131V1.20947H45.6863C45.5608 1.20947 45.5474 1.33228 45.516 1.40505C45.4757 1.49602 45.4041 1.5688 45.31 1.60064C45.1666 1.64157 45.0188 1.65977 44.871 1.65522L39.7554 1.6916L39.845 20.0308L44.9606 20.0035C45.1084 19.9989 45.2562 20.0171 45.3996 20.0535" fill="white"/>
<path d="M4.91401 4.54346L4.26001 4.54801C3.84341 4.54801 3.73143 4.66626 3.73591 5.08927L3.76278 10.6838L4.28688 10.6793L4.26001 5.61688C4.26001 5.19843 4.37199 5.08017 4.78411 5.07562L5.44707 5.07107C5.44707 4.65717 5.33508 4.54346 4.91401 4.54346Z" fill="white"/>
<path d="M4.34062 19.9399C4.34062 19.899 4.34062 19.8398 4.34062 19.758L4.31374 14.5273L5.50529 14.5227L5.50081 13.9951L3.77621 14.0042L3.80308 19.2394C3.80308 19.3259 3.80308 19.3804 3.80308 19.4214C3.80308 19.8307 4.24655 19.6852 4.24655 20.1946C4.25103 20.4038 4.13456 20.5994 3.94643 20.6858C3.73589 20.7541 3.51192 20.7859 3.29242 20.7722L0.842143 20.7859C0.618169 20.7995 0.394195 20.7722 0.179179 20.704C0.111987 20.6631 0.0492743 20.6131 0 20.5539C0.143343 20.9132 0.452428 21.1816 0.828705 21.268H0.877979H0.886938H0.967569H0.994446H1.06612C1.21394 21.268 1.3528 21.268 1.3528 21.268L3.80756 21.2544C4.03154 21.268 4.25551 21.2362 4.46605 21.168C4.65418 21.077 4.77065 20.8814 4.76169 20.6722C4.75721 20.1673 4.31822 20.3174 4.31822 19.9035" fill="white"/>
<path d="M9.5458 19.9126C9.54132 19.8535 9.54132 19.7898 9.5458 19.7307L9.4786 5.42597C9.53684 4.43442 9.21431 3.45651 8.58271 2.69238C8.47968 2.58321 8.36769 2.48315 8.24675 2.39673C8.73949 3.13357 8.98138 4.01596 8.94107 4.90745L9.00826 19.2122C9.00826 19.2986 9.00826 19.3532 9.00826 19.3941C9.00826 19.8035 9.45173 19.6579 9.45173 20.1674C9.45621 20.3766 9.33974 20.5722 9.15608 20.6586C8.94555 20.7314 8.72157 20.7586 8.4976 20.745L6.04732 20.7587C5.82335 20.7723 5.59937 20.745 5.38436 20.6768C5.31716 20.6404 5.25893 20.5904 5.20966 20.5358C5.353 20.8815 5.64865 21.1453 6.007 21.2362C6.19066 21.2772 6.38328 21.2908 6.57142 21.2817L9.01274 21.2681C9.23671 21.2817 9.46069 21.2499 9.67122 21.1817C9.85936 21.0907 9.97583 20.8951 9.96687 20.6859C9.96239 20.181 9.5234 20.3311 9.5234 19.9172" fill="white"/>
<path d="M3.20281 5.08926C3.12666 4.56619 3.48054 4.07951 3.99568 4.00219C4.08079 3.98854 4.17038 3.98854 4.25549 4.00219L4.9095 3.99764C5.42016 3.92032 5.89946 4.27964 5.97562 4.79816C5.98905 4.88913 5.98905 4.9801 5.97562 5.07107L6.00697 11.2114L3.22969 11.2251L3.20281 5.08926ZM0.438973 20.1718H0.470329L3.61941 20.1581H3.65076C3.65524 20.1445 3.65524 20.1354 3.65076 20.1217C3.65076 19.9944 3.52982 19.9807 3.45815 19.9489C3.36856 19.908 3.29688 19.8352 3.26553 19.7397C3.22969 19.5941 3.21177 19.444 3.21625 19.2939L3.1849 14.4544L3.18042 13.4583L5.96218 13.4447L5.98905 19.2848C5.99353 19.4349 5.97562 19.585 5.93978 19.7306C5.90394 19.8261 5.83675 19.8989 5.74716 19.9398C5.66653 19.9716 5.55454 19.9853 5.55454 20.1172C5.55454 20.1308 5.55454 20.1399 5.55454 20.1536H5.5859L8.70362 20.1399H8.73498C8.73498 20.1263 8.73498 20.1172 8.73498 20.1036C8.73498 19.9762 8.61403 19.9626 8.54236 19.9307C8.45277 19.8898 8.3811 19.817 8.34974 19.7215C8.30943 19.5759 8.29151 19.4258 8.29599 19.2757L8.21984 4.90732C8.21088 2.80141 7.23435 1.75073 5.29921 1.75982L3.6642 1.76892C1.72459 1.78257 0.761496 2.8378 0.770455 4.94371L0.837647 19.3076C0.842127 19.4577 0.824209 19.6078 0.788373 19.7533C0.757016 19.8488 0.685345 19.9216 0.595755 19.9626C0.519604 19.9944 0.403137 20.008 0.403137 20.1399C0.403137 20.1536 0.403137 20.1627 0.403137 20.1763" fill="white"/>
<path d="M124.669 1.27779C124.597 1.24595 124.525 1.22321 124.449 1.21411C124.449 1.21411 124.449 1.21411 124.449 1.2414C124.454 1.79176 123.965 1.69169 123.858 1.94641V1.99644C123.858 1.99644 121.233 12.6352 121.166 12.899L121.192 18.6482C121.192 18.7346 121.192 18.7892 121.192 18.8301C121.192 19.2395 121.636 19.0939 121.636 19.5988C121.64 19.808 121.524 20.0036 121.336 20.09C121.125 20.1628 120.901 20.1901 120.677 20.1764L118.236 20.1901C118.012 20.2037 117.788 20.1764 117.573 20.1082C117.506 20.0718 117.443 20.0263 117.394 19.9672C117.528 20.2947 117.797 20.5494 118.133 20.6586C118.335 20.7131 118.55 20.7359 118.76 20.7268L121.201 20.7131C121.425 20.7222 121.649 20.6949 121.86 20.6222C122.048 20.5312 122.165 20.3402 122.156 20.1309C122.151 19.6261 121.712 19.7762 121.712 19.3577C121.712 19.3168 121.712 19.2531 121.712 19.1758L121.681 13.0582C121.743 12.7944 124.27 2.50586 124.27 2.49676C124.319 2.31937 124.539 2.28299 124.624 2.25115C124.834 2.16473 124.996 2.06921 124.996 1.76447C125 1.55524 124.879 1.35966 124.691 1.27324" fill="white"/>
<path d="M119.401 6.87223L119.66 5.65326L118.863 2.31473C118.863 2.31473 118.836 2.2465 118.917 2.17372C119.02 2.07821 119.078 1.94176 119.065 1.80076C119.069 1.59153 118.948 1.4005 118.765 1.30953C118.693 1.27769 118.617 1.25495 118.541 1.24585C118.541 1.24585 118.541 1.24585 118.541 1.27314C118.545 1.45962 118.442 1.63701 118.281 1.72343C118.227 1.76437 118.223 1.83259 118.236 1.90537C118.411 2.6786 119.275 6.31278 119.401 6.85404" fill="white"/>
<path d="M118.209 18.73C118.214 18.8801 118.196 19.0302 118.16 19.1758C118.128 19.2713 118.057 19.3441 117.967 19.385C117.891 19.4168 117.775 19.4305 117.775 19.5624C117.77 19.576 117.77 19.5897 117.775 19.6033H117.806L120.924 19.5897H120.955C120.96 19.576 120.96 19.5624 120.955 19.5487C120.955 19.4214 120.834 19.4123 120.762 19.3759C120.673 19.335 120.601 19.2622 120.57 19.1667C120.529 19.0211 120.512 18.871 120.516 18.7209L120.489 12.8444C120.489 12.8444 123.195 1.84634 123.235 1.70534C123.275 1.56434 123.392 1.5416 123.714 1.43698C123.773 1.41879 123.808 1.36421 123.804 1.30053C123.808 1.28689 123.808 1.27324 123.804 1.2596H123.773L120.655 1.27324H120.624C120.624 1.28689 120.624 1.30053 120.624 1.31418C120.624 1.44153 120.745 1.45518 120.816 1.48247C120.892 1.50976 120.96 1.52795 120.977 1.60527C120.991 1.6735 120.995 1.74173 120.977 1.8054C120.919 2.04647 119.499 9.19202 119.499 9.19202H119.423C119.423 9.19202 117.734 1.94186 117.703 1.81905C117.69 1.75082 117.685 1.6826 117.703 1.61892C117.703 1.5325 117.806 1.51885 117.86 1.49156C117.913 1.46427 118.052 1.44608 118.052 1.31872C118.057 1.30508 118.057 1.29143 118.052 1.27779L117.918 1.21411L114.805 1.22776H114.769C114.769 1.2414 114.769 1.25505 114.769 1.26869C114.764 1.32782 114.8 1.3824 114.858 1.4006C115.181 1.49611 115.297 1.5234 115.338 1.65986C115.378 1.79631 118.187 12.8307 118.187 12.8307L118.209 18.73Z" fill="white"/>
<path d="M112.278 1.34151C112.207 1.30967 112.13 1.28693 112.054 1.27783C112.054 1.27783 112.054 1.27783 112.054 1.30512C112.059 1.85548 111.615 1.75541 111.508 2.02377C111.508 2.04196 111.508 2.06016 111.508 2.07835C111.508 2.08745 111.508 2.092 111.508 2.10109C111.508 2.10109 110.894 6.04911 110.186 10.6612C109.604 14.4273 108.981 18.5072 108.874 19.1622C109.004 19.2713 109.183 19.3259 109.183 19.6625C109.187 19.8717 109.071 20.0673 108.887 20.1537C108.677 20.2265 108.453 20.2538 108.233 20.2401L105.416 20.2538C105.192 20.2674 104.968 20.2401 104.753 20.1719C104.686 20.1355 104.623 20.0855 104.574 20.0309C104.717 20.3902 105.026 20.6586 105.398 20.745H105.46H105.546H105.662C105.814 20.745 105.949 20.745 105.949 20.745L108.771 20.7314C108.995 20.745 109.219 20.7132 109.429 20.645C109.617 20.554 109.734 20.363 109.725 20.1537C109.725 19.8171 109.537 19.7717 109.416 19.6534C109.519 18.9848 110.146 14.9049 110.728 11.1524C111.436 6.55399 112.041 2.62416 112.041 2.60597C112.041 2.59687 112.041 2.59232 112.041 2.58323V2.53319C112.153 2.27393 112.592 2.3649 112.587 1.81454C112.592 1.60532 112.471 1.40974 112.283 1.32332" fill="white"/>
<path d="M106.76 11.4845V11.5073L107.01 9.62421L105.962 2.42408C105.958 2.38315 105.976 2.33766 106.011 2.31037C106.173 2.22395 106.267 2.04657 106.249 1.86008C106.253 1.65085 106.132 1.45982 105.949 1.36885C105.877 1.33701 105.801 1.31427 105.725 1.30518C105.725 1.30518 105.725 1.30518 105.725 1.33247C105.729 1.51895 105.626 1.69634 105.465 1.78276C105.407 1.82369 105.375 1.89647 105.384 1.96924C105.568 3.20186 106.545 9.97899 106.751 11.4663" fill="white"/>
<path d="M105.228 19.053C105.245 19.144 105.259 19.2395 105.263 19.335C105.228 19.3759 105.187 19.4078 105.138 19.4305C105.062 19.4623 104.945 19.476 104.945 19.6079C104.945 19.6215 104.945 19.6352 104.945 19.6488H104.977L108.471 19.6306H108.502C108.502 19.617 108.502 19.6033 108.502 19.5897C108.502 19.4623 108.386 19.4487 108.309 19.4169C108.251 19.3987 108.202 19.3577 108.166 19.3077C108.18 19.0757 108.206 18.8483 108.256 18.6254C108.381 17.8022 108.578 16.5241 108.578 16.5241C109.42 12.0121 110.984 1.86001 110.997 1.79178C111.037 1.65078 111.118 1.62804 111.436 1.52797C111.49 1.50523 111.526 1.45065 111.526 1.39152C111.53 1.37788 111.53 1.36423 111.526 1.35059H111.494L108.377 1.36423H108.345C108.341 1.37788 108.341 1.39152 108.345 1.40517C108.345 1.53252 108.462 1.54617 108.538 1.57346C108.619 1.60075 108.695 1.62349 108.717 1.70536C108.731 1.77359 108.735 1.84181 108.717 1.90549C108.681 2.1602 106.907 15.3278 106.907 15.3278L104.972 1.92369C104.959 1.85546 104.954 1.78723 104.972 1.72356C104.972 1.63714 105.093 1.61439 105.151 1.5871C105.21 1.55981 105.344 1.54162 105.344 1.41426C105.349 1.40062 105.349 1.38697 105.344 1.37333H105.313L102.195 1.38697H102.159C102.155 1.40062 102.155 1.41426 102.159 1.42791C102.155 1.48704 102.195 1.54162 102.253 1.55981C102.576 1.65533 102.656 1.68262 102.697 1.82362C102.737 1.96007 104.403 12.1713 105.125 16.615C105.125 16.615 105.416 18.3525 105.519 19.0484" fill="white"/>
</svg>
